<?xml version="1.0" standalone="no"?>
<!DOCTYPE svg PUBLIC "-//W3C//DTD SVG 20010904//EN"
 "http://www.w3.org/TR/2001/REC-SVG-20010904/DTD/svg10.dtd">
<svg version="1.0" xmlns="http://www.w3.org/2000/svg"
 width="700.000000pt" height="700.000000pt" viewBox="0 0 700.000000 700.000000"
 preserveAspectRatio="xMidYMid meet">
<metadata>
Created by potrace 1.14, written by Peter Selinger 2001-2017
</metadata>
<g transform="translate(0.000000,700.000000) scale(0.100000,-0.100000)"
fill="#000000" stroke="none">
<path d="M3290 6904 c-91 -53 -183 -107 -205 -119 -43 -25 -182 -105 -450
-260 -93 -54 -183 -106 -200 -114 -16 -9 -32 -18 -35 -21 -3 -3 -14 -10 -25
-16 -50 -27 -643 -368 -665 -383 -14 -8 -34 -21 -45 -27 -185 -100 -844 -489
-837 -493 8 -5 377 -364 738 -718 52 -51 96 -93 99 -93 2 0 27 14 54 30 139
86 492 223 547 212 18 -3 24 -11 24 -29 0 -48 -95 -307 -165 -450 l-72 -144
46 -37 c25 -20 56 -48 68 -61 75 -84 119 -244 127 -456 2 -62 5 -71 30 -90 21
-15 43 -20 94 -20 86 0 165 37 273 129 l76 64 32 -25 c62 -49 110 -157 128
-290 16 -115 7 -485 -14 -570 -7 -29 -3 -29 55 2 213 113 373 284 476 505 36
79 89 244 101 320 4 25 9 53 10 62 25 132 25 400 0 568 l-7 45 32 -35 c17 -19
57 -66 89 -105 221 -270 343 -621 335 -965 -2 -93 -11 -211 -19 -250 -3 -14
-8 -41 -11 -60 -3 -19 -7 -43 -10 -52 -3 -9 -6 -25 -8 -35 -40 -201 -187 -569
-305 -763 -11 -19 -24 -42 -28 -50 -42 -91 -333 -500 -389 -546 -31 -26 -762
14 -949 52 -11 3 -36 7 -55 9 -19 3 -44 8 -56 10 -12 3 -39 7 -60 11 -62 9
-241 51 -339 79 -328 95 -608 245 -782 421 -102 104 -165 200 -213 325 -18 49
-37 143 -32 162 1 4 -2 7 -6 7 -5 0 -16 -19 -26 -42 -10 -24 -27 -61 -36 -83
-41 -95 -104 -316 -125 -440 -11 -64 -15 -358 -5 -381 5 -13 67 -55 157 -107
81 -47 218 -125 303 -175 85 -49 376 -216 645 -372 270 -156 504 -291 520
-301 17 -10 44 -26 60 -35 17 -9 147 -84 290 -167 143 -82 274 -158 290 -167
17 -10 118 -68 225 -130 107 -62 213 -123 235 -135 22 -13 71 -41 109 -63 41
-24 75 -38 85 -34 14 5 70 38 136 79 11 7 45 26 75 43 30 16 73 40 95 53 41
25 925 536 980 567 17 10 54 31 83 49 29 17 55 31 58 31 2 0 21 11 42 24 20
14 60 37 87 53 54 30 256 146 308 176 43 26 734 425 777 450 185 105 366 212
371 219 3 5 6 794 6 1754 l0 1744 -76 44 c-42 24 -188 109 -326 189 -137 79
-266 154 -285 164 -20 11 -92 53 -160 93 -69 40 -141 82 -160 93 -19 11 -63
36 -98 56 -35 20 -71 41 -80 46 -9 6 -48 28 -87 50 -38 22 -79 45 -90 52 -11
7 -27 15 -35 19 -8 4 -73 42 -146 85 -72 42 -151 88 -175 101 -24 14 -260 150
-524 303 -758 438 -787 455 -788 455 -1 0 -76 -44 -167 -96z"/>
<path d="M1826 2948 c-56 -28 -87 -78 -93 -145 -3 -45 0 -66 15 -93 62 -112
204 -133 289 -43 68 73 68 172 -1 246 -53 57 -139 71 -210 35z"/>
</g>
</svg>
