<svg width="2627" height="1295" viewBox="0 0 2627 1295" fill="none" xmlns="http://www.w3.org/2000/svg">
<path d="M916.906 697.855C901.191 694.712 888.619 694.712 872.904 694.712C863.475 694.712 854.046 697.855 844.617 697.855C734.612 719.86 665.466 820.451 687.467 933.616C703.182 1015.35 766.042 1078.22 847.76 1093.93C863.475 1097.08 876.047 1097.08 891.762 1097.08C901.191 1097.08 910.62 1097.08 920.049 1093.93C973.48 1084.5 1017.48 1053.07 1048.91 1009.06C1077.2 965.051 1089.77 911.612 1080.34 858.173C1061.48 773.299 998.624 710.429 916.906 697.855ZM967.194 955.621C951.479 977.625 929.478 993.342 901.191 999.629C898.048 999.629 891.762 999.629 888.619 1002.77H885.476C879.19 1002.77 869.761 1002.77 863.475 1002.77C822.616 996.486 788.043 961.908 778.614 914.755C772.328 886.464 778.614 855.029 794.329 833.025C810.044 811.021 832.045 795.303 860.332 789.016C866.618 789.016 869.761 785.873 876.047 785.873C882.333 785.873 891.762 785.873 898.048 785.873C938.907 792.16 973.48 826.738 982.909 873.89C989.195 902.181 982.909 933.616 967.194 955.621Z" fill="#5BCACA"/>
<path d="M2290.41 732.424C2265.26 694.703 2224.4 666.411 2177.26 656.981H2174.12C2158.4 653.837 2142.69 653.837 2126.97 653.837C2038.97 660.124 1972.96 722.994 1957.25 823.585C1947.82 877.024 1957.25 927.32 1982.39 968.185C2007.54 1009.05 2051.54 1037.34 2101.83 1049.92H2104.97C2120.68 1053.06 2139.54 1053.06 2155.26 1053.06C2211.83 1049.92 2249.55 1027.91 2277.83 996.477C2284.12 990.19 2284.12 977.616 2274.69 971.329L2230.69 933.607C2227.55 930.464 2221.26 927.32 2218.12 930.464C2211.83 930.464 2208.69 933.607 2205.55 936.75C2186.69 958.755 2161.54 968.185 2126.97 961.898C2079.83 952.468 2051.54 914.746 2051.54 870.737L2296.69 914.746C2306.12 917.89 2315.55 911.603 2318.69 902.172C2328.12 839.303 2318.69 779.577 2290.41 732.424ZM2067.25 785.864C2082.97 763.859 2108.11 748.142 2136.4 748.142C2142.69 748.142 2148.97 748.142 2155.26 748.142C2186.69 754.429 2211.83 779.577 2218.12 814.155L2067.25 785.864Z" fill="#5BCACA"/>
<path d="M1341.21 625.546C1325.5 622.402 1312.93 622.402 1297.21 622.402H1294.07C1240.64 625.546 1190.35 647.55 1155.78 688.415C1121.2 729.281 1102.34 779.576 1105.49 833.015C1108.63 924.176 1177.78 1002.76 1265.78 1018.48C1281.5 1021.62 1294.07 1021.62 1309.78 1021.62H1312.93C1422.93 1015.34 1507.79 924.176 1501.51 814.155C1498.36 719.85 1432.36 644.407 1341.21 625.546ZM1382.07 895.885C1363.21 917.889 1338.07 930.463 1309.78 930.463H1306.64C1297.21 930.463 1290.92 930.463 1281.5 927.32C1234.35 917.889 1199.78 880.168 1199.78 826.728C1199.78 798.437 1206.06 770.146 1224.92 748.141C1243.78 726.137 1268.92 713.563 1297.21 713.563H1300.35C1306.64 713.563 1316.07 713.563 1322.35 716.707C1369.5 726.137 1404.07 767.002 1407.22 817.298C1407.22 848.733 1400.93 877.024 1382.07 895.885Z" fill="#5BCACA"/>
<path d="M1768.67 619.259C1759.24 616.116 1752.96 616.115 1743.53 616.115C1705.81 612.972 1661.81 631.833 1639.81 653.837V641.263C1639.81 631.833 1633.52 622.402 1620.95 622.402L1561.23 619.259C1554.95 619.259 1551.81 619.259 1548.66 625.546C1545.52 628.689 1542.38 634.976 1542.38 638.12L1517.23 1172.51C1517.23 1181.94 1523.52 1191.37 1532.95 1191.37H1536.09L1595.81 1194.52C1595.81 1194.52 1595.81 1194.52 1598.95 1194.52C1602.09 1194.52 1608.38 1191.37 1611.52 1188.23C1614.67 1185.09 1617.81 1178.8 1617.81 1175.65L1627.24 977.616C1649.24 993.333 1674.38 1005.91 1699.53 1012.19C1708.96 1015.34 1715.24 1015.34 1724.67 1015.34C1730.96 1015.34 1737.24 1015.34 1746.67 1015.34C1840.96 1009.05 1913.25 930.463 1919.54 826.729C1922.68 773.289 1906.96 722.994 1878.68 685.272C1850.39 650.694 1812.67 625.546 1768.67 619.259ZM1822.1 817.298C1818.96 864.45 1793.82 921.033 1734.1 924.176C1730.96 924.176 1727.81 924.176 1721.53 924.176C1693.24 924.176 1671.24 911.603 1655.52 886.455C1639.81 864.45 1633.52 836.159 1633.52 804.724C1636.67 757.572 1668.1 707.276 1721.53 704.133C1724.67 704.133 1727.81 704.133 1730.96 704.133C1737.24 704.133 1743.53 704.133 1746.67 707.276C1768.67 710.42 1787.53 722.994 1800.1 738.711C1815.82 757.572 1822.1 785.863 1822.1 817.298Z" fill="#5BCACA"/>
<path d="M574.32 562.683C586.892 565.826 599.464 565.826 615.179 565.826C624.608 565.826 634.037 565.826 643.466 562.683C671.753 556.396 693.754 546.965 715.755 531.248C722.041 524.961 728.327 515.531 731.47 506.1V518.674C731.47 524.961 737.756 531.248 747.185 534.391C750.328 534.391 753.471 534.391 753.471 534.391L810.045 524.961C816.331 524.961 819.474 521.817 822.617 515.531C825.76 512.387 825.76 506.1 825.76 499.813L734.613 15.7174C734.613 9.43044 728.327 3.14348 718.898 0C715.755 0 712.612 0 712.612 0L656.038 9.43044C649.752 9.43044 646.609 12.5739 643.466 18.8609C640.323 22.0044 640.323 28.2913 640.323 34.5783L668.61 194.896C637.18 179.178 602.607 176.035 568.034 182.322C467.458 201.183 407.741 295.487 426.599 405.509C445.457 487.239 502.031 550.109 574.32 562.683ZM536.604 311.204C546.033 295.487 561.748 276.626 593.178 270.339C599.464 270.339 605.75 267.196 608.893 267.196C615.179 267.196 624.608 267.196 630.894 270.339C668.61 276.626 693.754 308.061 703.183 352.07C712.612 402.365 693.754 462.091 634.037 471.522C627.751 471.522 624.608 471.522 618.322 471.522C612.036 471.522 605.75 471.522 599.464 468.378C555.462 458.948 533.461 414.939 527.175 380.361C520.889 358.357 524.032 333.209 536.604 311.204Z" fill="#5BCACA"/>
<path d="M982.923 490.389C998.638 493.533 1014.35 493.533 1030.07 493.533C1064.64 490.389 1096.07 477.815 1124.36 455.811C1127.5 493.533 1124.36 518.68 1114.93 540.685C1102.36 562.689 1083.5 578.406 1048.93 581.55C1020.64 584.693 973.494 575.263 964.065 534.398C960.922 524.967 954.636 515.537 942.064 515.537L885.49 521.824C879.204 521.824 876.061 524.967 872.918 528.111C869.775 531.254 866.632 537.541 869.775 543.828C882.347 609.841 932.635 653.85 998.638 666.424C1014.35 669.567 1030.07 669.567 1048.93 669.567C1052.07 669.567 1055.21 669.567 1058.36 669.567C1114.93 663.28 1165.22 634.989 1196.65 590.98C1231.22 537.541 1224.93 487.246 1221.79 433.806L1193.5 119.459C1193.5 110.028 1187.22 103.741 1177.79 100.598C1174.65 100.598 1174.65 100.598 1171.5 100.598L1114.93 106.885C1108.64 106.885 1105.5 110.028 1102.36 113.172C1099.21 116.315 1096.07 122.602 1099.21 128.889V141.463C1077.21 113.172 1030.07 106.885 1001.78 106.885C901.205 116.315 832.059 207.476 841.488 317.498C844.631 405.515 904.348 474.672 982.923 490.389ZM954.636 226.337C970.351 207.476 989.209 198.045 1011.21 194.902H1014.35C1023.78 194.902 1030.07 194.902 1036.35 194.902C1077.21 201.189 1105.5 235.767 1108.64 286.063C1111.79 314.354 1105.5 342.646 1092.93 364.65C1077.21 386.654 1055.21 399.228 1030.07 399.228H1026.93C1020.64 399.228 1014.35 399.228 1004.92 399.228C957.779 389.798 935.778 345.789 929.492 301.78C929.492 264.059 942.064 238.911 954.636 226.337Z" fill="#5BCACA"/>
<path d="M1539.22 455.801L1595.79 458.945C1595.79 458.945 1595.79 458.945 1598.94 458.945C1602.08 458.945 1608.37 455.801 1611.51 452.658C1614.65 449.514 1617.79 443.227 1617.79 440.084L1627.22 110.019C1627.22 100.588 1620.94 91.1578 1608.37 91.1578L1551.79 88.0143C1545.51 88.0143 1542.36 91.1578 1539.22 94.3013C1536.08 97.4448 1532.93 103.732 1532.93 106.875V119.449C1517.22 91.1578 1473.22 78.5839 1438.64 75.4404C1432.36 75.4404 1429.21 75.4404 1422.93 75.4404C1325.5 81.7274 1256.35 157.171 1253.21 264.049C1250.06 364.64 1309.78 443.227 1397.78 458.945C1407.21 462.088 1416.64 462.088 1426.07 462.088C1463.79 462.088 1495.22 452.658 1523.5 433.797C1517.22 446.371 1526.65 455.801 1539.22 455.801ZM1441.79 370.927C1438.64 370.927 1435.5 370.927 1432.36 370.927C1404.07 370.927 1382.07 358.354 1369.5 336.349C1353.78 317.488 1347.5 289.197 1347.5 260.906C1347.5 216.897 1378.93 166.601 1432.36 163.458C1435.5 163.458 1438.64 163.458 1438.64 163.458C1444.93 163.458 1448.07 163.458 1454.36 166.601C1510.93 176.032 1529.79 226.327 1526.65 267.193C1526.65 314.345 1501.5 367.784 1441.79 370.927Z" fill="#5BCACA"/>
<path d="M2042.1 512.389C2076.68 521.82 2123.82 518.676 2145.82 496.672L2142.68 506.103C2142.68 512.389 2142.68 515.533 2145.82 521.82C2148.97 524.963 2152.11 528.107 2158.39 531.25L2211.82 543.824H2214.97C2224.4 543.824 2230.68 537.537 2233.83 528.107L2346.97 66.0156C2346.97 59.7286 2346.97 56.5851 2343.83 50.2982C2340.69 47.1547 2337.54 44.0112 2331.26 40.8677L2277.83 31.4373C2268.4 28.2938 2255.83 34.5808 2252.68 47.1547L2218.11 188.611C2196.11 163.463 2167.82 144.603 2133.25 135.172C2114.39 132.029 2098.68 128.885 2079.82 128.885C2001.24 132.029 1935.24 191.755 1913.24 279.772C1900.67 330.068 1906.95 380.363 1925.81 421.229C1950.96 468.381 1991.81 499.816 2042.1 512.389ZM2010.67 301.776C2020.1 257.768 2057.82 226.333 2095.53 223.189C2101.82 223.189 2108.11 223.189 2114.39 223.189C2117.54 223.189 2117.53 223.189 2120.68 223.189C2145.82 229.476 2167.82 245.194 2180.39 267.198C2192.97 289.203 2192.97 314.35 2186.68 342.642C2174.11 392.937 2142.68 424.372 2101.82 427.516C2092.39 427.516 2082.96 427.516 2073.53 424.372C2048.39 418.085 2029.53 402.368 2016.96 377.22C2004.39 358.359 2001.24 330.068 2010.67 301.776Z" fill="#5BCACA"/>
<path d="M1683.81 462.086C1686.95 462.086 1686.95 462.086 1683.81 462.086L1740.38 468.373H1743.52C1746.67 468.373 1749.81 465.229 1752.95 465.229C1756.1 462.086 1759.24 455.799 1759.24 452.655L1771.81 289.194C1781.24 238.899 1790.67 188.603 1822.1 185.46C1840.96 182.316 1856.67 188.603 1869.24 198.034L1872.39 201.177C1875.53 204.321 1881.82 207.464 1888.1 204.321C1894.39 204.321 1897.53 201.177 1900.67 194.89L1928.96 150.881C1935.25 141.451 1932.1 132.021 1922.67 122.59C1903.82 110.016 1878.67 88.0118 1828.38 91.1553C1812.67 91.1553 1796.95 100.586 1784.38 116.303C1784.38 110.016 1784.38 103.729 1784.38 100.586C1781.24 97.4423 1778.1 94.2988 1771.81 94.2988H1718.38C1705.81 94.2988 1696.38 100.586 1696.38 113.16L1668.09 440.081C1668.09 452.655 1674.38 462.086 1683.81 462.086Z" fill="#5BCACA"/>
<path d="M2620.43 767.009C2604.72 751.291 2579.57 726.143 2529.28 723C2513.57 723 2494.71 729.287 2482.14 741.861C2482.14 735.574 2485.28 729.287 2482.14 726.143C2479 723 2475.85 719.856 2469.57 716.713L2412.99 704.139C2403.56 700.995 2390.99 707.282 2387.85 719.856L2318.7 1049.92C2315.56 1059.35 2321.85 1071.93 2334.42 1071.93L2390.99 1084.5H2394.14C2397.28 1084.5 2403.56 1084.5 2406.71 1081.36C2409.85 1078.21 2412.99 1075.07 2416.14 1068.78L2450.71 902.178C2460.14 858.169 2475.85 807.874 2510.43 807.874C2529.28 807.874 2545 817.304 2554.43 826.735L2557.57 829.878C2560.71 833.022 2567 836.165 2573.29 836.165C2579.57 836.165 2585.86 833.022 2589 829.878L2623.57 789.013C2629.86 785.869 2626.72 776.439 2620.43 767.009Z" fill="#5BCACA"/>
<path d="M668.62 1002.77L630.904 987.051C596.331 974.477 593.188 990.195 577.473 1015.34C542.9 1084.5 508.327 1137.94 442.324 1166.23C404.608 1181.95 363.749 1188.23 322.89 1178.8C253.744 1166.23 197.17 1115.93 165.74 1043.63C128.024 955.616 140.596 792.156 294.603 722.999C432.895 722.999 492.612 638.125 445.467 603.547C398.322 568.969 300.889 590.973 244.315 619.264C228.6 619.264 212.885 616.121 197.17 609.834C137.453 587.829 96.5938 524.96 99.7369 462.09C102.88 405.508 146.882 339.495 212.885 342.638C234.886 342.638 256.887 348.925 269.459 370.929C272.602 380.36 282.031 396.077 272.602 405.508C256.887 424.368 203.456 436.942 175.169 443.229C165.74 443.229 159.454 449.516 159.454 462.09C159.454 493.525 168.883 512.386 181.455 524.96C200.313 534.39 206.599 534.39 219.171 531.247C282.031 518.673 379.464 490.382 382.607 411.795C385.75 358.355 360.606 304.916 310.318 273.481C260.03 238.903 156.311 235.76 84.0219 292.342C8.58983 352.068 -22.8402 462.09 18.0188 565.825C36.8768 619.264 77.7358 660.129 131.167 688.421C134.31 691.564 137.453 691.564 143.739 694.708C36.8768 798.442 5.44683 958.76 62.0208 1090.79C106.023 1194.52 194.027 1266.82 297.746 1288.83C360.606 1301.4 426.609 1295.11 489.469 1266.82C605.76 1216.53 649.762 1134.79 681.192 1062.49C693.764 1031.06 693.764 1012.2 668.62 1002.77Z" fill="#5BCACA"/>
<path d="M2535.56 1068.78L2513.56 1097.07L2507.27 1062.49L2485.27 1100.21H2488.42L2497.85 1078.21L2500.99 1106.5L2519.85 1084.49L2516.7 1109.64H2519.85L2535.56 1068.78Z" fill="#5BCACA"/>
<path d="M2494.69 1065.64V1062.5L2472.69 1056.21V1059.36L2482.12 1062.5L2472.69 1097.08H2475.83L2485.26 1062.5L2494.69 1065.64C2491.55 1065.64 2494.69 1065.64 2494.69 1065.64Z" fill="#5BCACA"/>
</svg>
